HIERARCHY
ROOT Hips
{
	OFFSET	0.000000	0.000000	0.000000
	CHANNELS	6	Xposition	Yposition	Zposition	Zrotation	Xrotation	Yrotation
	JOINT LeftHip
	{
		OFFSET	15.500000	-8.200000	0.000000
		CHANNELS	3	Zrotation	Xrotation	Yrotation
		JOINT LeftKnee
		{
			OFFSET	0.000000	-41.000000	0.000000
			CHANNELS	3	Zrotation	Xrotation	Yrotation
			JOINT LeftAnkle
			{
				OFFSET	0.000000	-41.500000	0.000000
				CHANNELS	3	Zrotation	Xrotation	Yrotation
				End Site
				{
					OFFSET	0.000000	0.000000	22.875000
				}
			}
		}
	}
	JOINT RightHip
	{
		OFFSET	-15.500000	-8.200000	0.000000
		CHANNELS	3	Zrotation	Xrotation	Yrotation
		JOINT RightKnee
		{
			OFFSET	0.000000	-41.000000	0.000000
			CHANNELS	3	Zrotation	Xrotation	Yrotation
			JOINT RightAnkle
			{
				OFFSET	0.000000	-41.500000	0.000000
				CHANNELS	3	Zrotation	Xrotation	Yrotation
				End Site
				{
					OFFSET	0.000000	0.000000	22.875000
				}
			}
		}
	}
	JOINT Chest
	{
		OFFSET	0.000000	16.666667	0.000000
		CHANNELS	3	Zrotation	Xrotation	Yrotation
		JOINT LeftCollar
		{
			OFFSET	4.625000	33.333333	1.541667
			CHANNELS	3	Zrotation	Xrotation	Yrotation
			JOINT LeftShoulder
			{
				OFFSET	13.875000	0.000000	0.000000
				CHANNELS	3	Zrotation	Xrotation	Yrotation
				JOINT LeftElbow
				{
					OFFSET	0.000000	-28.000000	0.000000
					CHANNELS	3	Zrotation	Xrotation	Yrotation
					JOINT LeftWrist
					{
						OFFSET	0.000000	-25.000000	0.000000
						CHANNELS	3	Zrotation	Xrotation	Yrotation
						End Site
						{
							OFFSET	0.000000	-7.500000	0.000000
						}
					}
				}
			}
		}
		JOINT RightCollar
		{
			OFFSET	-4.625000	33.333333	1.541667
			CHANNELS	3	Zrotation	Xrotation	Yrotation
			JOINT RightShoulder
			{
				OFFSET	-13.875000	0.000000	0.000000
				CHANNELS	3	Zrotation	Xrotation	Yrotation
				JOINT RightElbow
				{
					OFFSET	0.000000	-28.000000	0.000000
					CHANNELS	3	Zrotation	Xrotation	Yrotation
					JOINT RightWrist
					{
						OFFSET	0.000000	-25.000000	0.000000
						CHANNELS	3	Zrotation	Xrotation	Yrotation
						End Site
						{
							OFFSET	0.000000	-7.500000	0.000000
						}
					}
				}
			}
		}
		JOINT Neck
		{
			OFFSET	0.000000	33.333333	0.000000
			CHANNELS	3	Zrotation	Xrotation	Yrotation
			JOINT Head
			{
				OFFSET	0.000000	12.000000	0.000000
				CHANNELS	3	Zrotation	Xrotation	Yrotation
				End Site
				{
					OFFSET	0.000000	15.000000	0.000000
				}
			}
		}
	}
}
MOTION
Frames:	21
Frame Time:	0.012000
-22.59	102.68	-67.41	0.50	2.80	-3.05	-1.38	-4.75	-9.67	-0.93	3.38	4.83	1.62	30.55	-1.10	1.86	2.19	3.28	0.53	1.57	-3.03	1.54	31.65	-2.09	0.12	4.33	-1.37	0.00	0.00	0.00	27.38	-11.48	56.57	-9.71	3.32	-3.33	-2.25	1.67	0.00	0.00	0.00	0.00	-24.02	-26.88	-66.23	14.36	18.06	-3.19	-1.52	-0.26	0.00	0.00	0.00	0.00	-7.90	2.27	-3.59
-22.60	102.69	-67.39	0.54	2.95	-2.92	-1.37	-4.71	-9.66	-0.93	3.36	4.83	1.60	30.52	-1.11	1.85	2.28	3.33	0.54	1.45	-3.03	1.50	31.67	-2.05	0.11	4.32	-1.39	0.00	0.00	0.00	27.34	-11.52	56.72	-9.80	3.29	-3.49	-2.28	1.65	0.00	0.00	0.00	0.00	-24.08	-26.87	-66.26	14.30	18.13	-3.11	-1.52	-0.25	0.00	0.00	0.00	0.00	-7.87	2.18	-3.67
-22.77	102.69	-67.05	0.54	2.95	-2.92	-1.35	-4.70	-9.67	-0.93	3.31	4.83	1.59	30.49	-1.10	1.87	2.33	3.34	0.51	1.35	-3.03	1.49	31.65	-2.06	0.09	4.30	-1.42	0.00	0.00	0.00	27.30	-11.57	56.89	-9.90	3.26	-3.69	-2.32	1.64	0.00	0.00	0.00	0.00	-24.14	-26.87	-66.28	14.20	18.19	-3.01	-1.53	-0.24	0.00	0.00	0.00	0.00	-7.85	2.19	-3.64
-22.79	102.69	-67.08	0.54	2.95	-2.92	-1.33	-4.70	-9.67	-0.92	3.27	4.83	1.57	30.48	-1.09	1.89	2.38	3.35	0.49	1.23	-3.03	1.47	31.68	-2.06	0.07	4.28	-1.44	0.00	0.00	0.00	27.25	-11.61	57.07	-10.01	3.23	-3.89	-2.36	1.63	0.00	0.00	0.00	0.00	-24.20	-26.87	-66.30	14.09	18.26	-2.88	-1.53	-0.22	0.00	0.00	0.00	0.00	-7.83	2.21	-3.61
-22.81	102.69	-67.12	0.61	3.14	-2.75	-1.31	-4.70	-9.66	-0.92	3.26	4.83	1.56	30.50	-1.09	1.90	2.42	3.35	0.45	1.11	-3.03	1.45	31.71	-2.07	0.05	4.25	-1.47	0.00	0.00	0.00	27.23	-11.68	57.27	-10.13	3.24	-4.17	-2.38	1.61	0.00	0.00	0.00	0.00	-24.25	-26.89	-66.33	13.92	18.34	-2.70	-1.51	-0.22	0.00	0.00	0.00	0.00	-7.70	1.94	-3.61
-23.04	102.69	-66.76	0.61	3.14	-2.75	-1.30	-4.71	-9.64	-0.92	3.24	4.83	1.55	30.52	-1.09	1.93	2.47	3.35	0.40	0.96	-3.03	1.44	31.71	-2.05	0.05	4.24	-1.51	0.00	0.00	0.00	27.22	-11.73	57.51	-10.29	3.27	-4.46	-2.39	1.59	0.00	0.00	0.00	0.00	-24.29	-26.91	-66.38	13.72	18.38	-2.49	-1.51	-0.20	0.00	0.00	0.00	0.00	-7.70	1.95	-3.58
-23.06	102.70	-66.78	0.61	3.14	-2.75	-1.28	-4.74	-9.62	-0.92	3.23	4.83	1.56	30.55	-1.11	1.97	2.49	3.32	0.34	0.83	-3.03	1.38	31.77	-2.12	0.05	4.22	-1.54	0.00	0.00	0.00	27.22	-11.77	57.77	-10.46	3.29	-4.78	-2.41	1.56	0.00	0.00	0.00	0.00	-24.32	-26.92	-66.45	13.51	18.46	-2.29	-1.51	-0.18	0.00	0.00	0.00	0.00	-7.70	1.97	-3.54
-23.09	102.71	-66.83	0.65	3.34	-2.66	-1.27	-4.77	-9.61	-0.92	3.22	4.83	1.56	30.57	-1.13	1.99	2.50	3.31	0.29	0.70	-3.03	1.41	31.77	-2.14	0.05	4.20	-1.58	0.00	0.00	0.00	27.23	-11.82	58.03	-10.63	3.38	-5.06	-2.45	1.54	0.00	0.00	0.00	0.00	-24.33	-26.94	-66.51	13.27	18.52	-2.06	-1.54	-0.13	0.00	0.00	0.00	0.00	-7.67	1.69	-3.57
-23.23	102.72	-66.50	0.65	3.34	-2.66	-1.25	-4.81	-9.58	-0.93	3.19	4.83	1.57	30.58	-1.16	2.03	2.51	3.29	0.23	0.57	-3.03	1.44	31.81	-2.18	0.06	4.17	-1.61	0.00	0.00	0.00	27.24	-11.86	58.34	-10.80	3.47	-5.33	-2.51	1.51	0.00	0.00	0.00	0.00	-24.33	-27.00	-66.59	13.01	18.58	-1.83	-1.55	-0.10	0.00	0.00	0.00	0.00	-7.68	1.72	-3.53
-23.26	102.73	-66.59	0.65	3.34	-2.66	-1.22	-4.83	-9.58	-0.94	3.18	4.83	1.59	30.61	-1.20	2.06	2.53	3.29	0.19	0.46	-3.03	1.54	31.75	-2.12	0.06	4.15	-1.63	0.00	0.00	0.00	27.27	-11.91	58.66	-10.97	3.58	-5.62	-2.57	1.50	0.00	0.00	0.00	0.00	-24.29	-27.02	-66.63	12.75	18.62	-1.61	-1.57	-0.07	0.00	0.00	0.00	0.00	-7.68	1.74	-3.50
-23.30	102.73	-66.63	0.66	3.58	-2.58	-1.19	-4.85	-9.62	-0.95	3.15	4.83	1.64	30.64	-1.26	2.08	2.54	3.31	0.17	0.35	-3.03	1.58	31.76	-2.13	0.06	4.12	-1.65	0.00	0.00	0.00	27.23	-11.87	59.00	-11.13	3.67	-5.92	-2.61	1.48	0.00	0.00	0.00	0.00	-24.27	-27.05	-66.67	12.51	18.63	-1.40	-1.58	-0.04	0.00	0.00	0.00	0.00	-7.62	1.56	-3.58
-23.39	102.75	-66.24	0.66	3.58	-2.58	-1.16	-4.90	-9.69	-0.98	3.18	4.83	1.73	30.67	-1.33	2.10	2.54	3.35	0.16	0.26	-3.03	1.64	31.77	-2.14	0.07	4.10	-1.67	0.00	0.00	0.00	27.27	-11.90	59.31	-11.29	3.76	-6.23	-2.65	1.47	0.00	0.00	0.00	0.00	-24.20	-27.08	-66.69	12.27	18.64	-1.20	-1.59	-0.03	0.00	0.00	0.00	0.00	-7.64	1.58	-3.56
-23.44	102.76	-66.29	0.66	3.58	-2.58	-1.11	-4.95	-9.79	-1.02	3.20	4.83	1.85	30.71	-1.40	2.10	2.51	3.41	0.19	0.22	-3.03	1.74	31.74	-2.17	0.07	4.08	-1.68	0.00	0.00	0.00	27.27	-11.91	59.62	-11.44	3.86	-6.55	-2.68	1.45	0.00	0.00	0.00	0.00	-24.14	-27.09	-66.66	12.05	18.64	-1.00	-1.59	-0.02	0.00	0.00	0.00	0.00	-7.64	1.60	-3.55
-23.48	102.77	-66.34	0.66	3.72	-2.53	-1.05	-4.99	-9.91	-1.07	3.24	4.83	2.00	30.74	-1.45	2.10	2.45	3.46	0.24	0.23	-3.03	1.90	31.73	-2.19	0.07	4.07	-1.70	0.00	0.00	0.00	27.24	-11.90	59.90	-11.58	3.98	-6.85	-2.70	1.45	0.00	0.00	0.00	0.00	-24.10	-27.10	-66.65	11.87	18.68	-0.80	-1.60	-0.01	0.00	0.00	0.00	0.00	-7.61	1.51	-3.59
-23.59	102.80	-66.11	0.66	3.72	-2.53	-0.98	-5.07	-10.09	-1.15	3.30	4.83	2.17	30.80	-1.49	2.10	2.35	3.52	0.30	0.29	-3.03	1.93	31.58	-2.11	0.07	4.07	-1.70	0.00	0.00	0.00	27.25	-11.92	60.12	-11.70	4.10	-7.15	-2.72	1.44	0.00	0.00	0.00	0.00	-24.06	-27.10	-66.61	11.73	18.73	-0.60	-1.60	0.00	0.00	0.00	0.00	0.00	-7.61	1.51	-3.58
-23.64	102.82	-66.15	0.66	3.72	-2.53	-0.89	-5.14	-10.31	-1.24	3.38	4.83	2.33	30.80	-1.49	2.09	2.22	3.59	0.40	0.42	-3.03	1.92	31.38	-1.97	0.08	4.08	-1.71	0.00	0.00	0.00	27.28	-11.96	60.28	-11.81	4.25	-7.40	-2.74	1.44	0.00	0.00	0.00	0.00	-24.02	-27.08	-66.56	11.61	18.81	-0.40	-1.60	0.02	0.00	0.00	0.00	0.00	-7.62	1.50	-3.58
-23.69	102.84	-66.18	0.64	3.89	-2.24	-0.79	-5.21	-10.60	-1.35	3.44	4.83	2.48	30.85	-1.47	2.09	2.03	3.62	0.51	0.66	-3.03	1.86	31.08	-1.76	0.08	4.11	-1.71	0.00	0.00	0.00	27.29	-11.97	60.39	-11.91	4.37	-7.63	-2.75	1.44	0.00	0.00	0.00	0.00	-24.00	-27.03	-66.47	11.57	18.91	-0.20	-1.59	0.03	0.00	0.00	0.00	0.00	-7.53	1.44	-3.90
-23.84	102.87	-65.83	0.64	3.89	-2.24	-0.68	-5.27	-10.94	-1.47	3.51	4.83	2.59	30.92	-1.41	2.07	1.83	3.68	0.67	0.99	-3.03	1.77	30.69	-1.48	0.09	4.15	-1.70	0.00	0.00	0.00	27.33	-11.99	60.41	-12.00	4.47	-7.79	-2.76	1.44	0.00	0.00	0.00	0.00	-23.98	-26.96	-66.35	11.58	19.03	-0.03	-1.54	0.05	0.00	0.00	0.00	0.00	-7.54	1.40	-3.92
-23.86	102.90	-65.83	0.64	3.89	-2.24	-0.55	-5.31	-11.30	-1.59	3.56	4.83	2.67	30.96	-1.34	2.06	1.53	3.66	0.81	1.44	-3.03	1.61	30.26	-1.09	0.10	4.20	-1.68	0.00	0.00	0.00	27.37	-12.03	60.34	-12.07	4.56	-7.91	-2.75	1.41	0.00	0.00	0.00	0.00	-23.95	-26.88	-66.25	11.61	19.11	0.12	-1.46	0.08	0.00	0.00	0.00	0.00	-7.55	1.36	-3.94
-23.87	102.93	-65.83	0.57	3.96	-1.74	-0.42	-5.34	-11.69	-1.72	3.61	4.83	2.70	31.00	-1.26	2.09	1.18	3.57	0.95	2.09	-3.03	1.33	29.68	-0.61	0.12	4.26	-1.65	0.00	0.00	0.00	27.43	-12.09	60.19	-12.14	4.61	-7.97	-2.75	1.34	0.00	0.00	0.00	0.00	-23.91	-26.79	-66.15	11.66	19.19	0.28	-1.30	0.08	0.00	0.00	0.00	0.00	-7.39	1.36	-4.46
-23.98	102.97	-65.56	0.54	3.99	-1.45	-0.27	-5.36	-12.12	-1.85	3.63	4.83	2.67	31.03	-1.18	2.09	0.80	3.50	1.14	2.78	-3.03	1.07	29.18	-0.12	0.13	4.34	-1.63	0.00	0.00	0.00	27.47	-12.18	59.93	-12.18	4.61	-7.97	-2.77	1.21	0.00	0.00	0.00	0.00	-23.88	-26.67	-66.07	11.72	19.21	0.49	-1.11	0.05	0.00	0.00	0.00	0.00	-7.34	1.30	-4.79
